<svg xmlns="http://www.w3.org/2000/svg" xmlns:xlink="http://www.w3.org/1999/xlink" width="16" height="16" viewBox="0 0 16 16"><defs><style>.a{fill:none;}.b{clip-path:url(#a);}.c{fill:#fff;stroke:#F7AB00;stroke-miterlimit:10;stroke-width:2px;}.d{fill:#F7AB00;}.e{stroke:none;}</style><clipPath id="a"><rect class="a" width="16" height="16"/></clipPath></defs><g class="b"><g class="c"><rect class="e" width="16" height="16" rx="6"/><rect class="a" x="1" y="1" width="14" height="14" rx="5"/></g><path class="d" d="M3641.907-8931.843l-2.333-2.334a.822.822,0,0,1,0-1.166.821.821,0,0,1,1.167,0l1.753,1.752,4.082-4.082a.825.825,0,0,1,1.167,0,.834.834,0,0,1,0,1.168l-4.667,4.662a.82.82,0,0,1-.583.242A.82.82,0,0,1,3641.907-8931.843Z" transform="translate(-3635.657 8943.172)"/></g></svg>