<svg xmlns="http://www.w3.org/2000/svg" width="85.211" height="108" viewBox="0 0 85.211 108"><defs><style>.a{fill:rgba(246,248,249,0);}.b{fill:#f05670;}.c{fill:#fff;}.d{fill:#2cbafc;}</style></defs><g transform="translate(1254.219 23985.777)"><g transform="translate(-1254.219 -23985.777)"><rect class="a" width="85.211" height="108" rx="6" transform="translate(0 0)"/><g transform="translate(8.934 11.331)"><g transform="translate(0 0)"><path class="b" d="M90.531,43.025a1.222,1.222,0,0,0-.864-.358H68.89A4.895,4.895,0,0,0,64,47.557V91.566a4.895,4.895,0,0,0,4.89,4.89H98.229a4.895,4.895,0,0,0,4.89-4.89V56.114a1.222,1.222,0,0,0-.358-.864Zm10.143,48.541a2.448,2.448,0,0,1-2.445,2.445H68.89a2.448,2.448,0,0,1-2.445-2.445V47.557a2.448,2.448,0,0,1,2.445-2.445H89.161L100.674,56.62Z" transform="translate(-64 -42.667)"/></g><g transform="translate(21.958 24.032)"><g transform="translate(0 0)"><g transform="translate(0 0)"><path class="b" d="M94.868,43.084a1.421,1.421,0,0,0-1.006-.417H69.689A5.7,5.7,0,0,0,64,48.356v51.2a5.7,5.7,0,0,0,5.689,5.689h34.135a5.7,5.7,0,0,0,5.689-5.689V58.312a1.421,1.421,0,0,0-.417-1.006Z" transform="translate(-64 -42.667)"/></g></g><path class="c" d="M128,217v19.56a3.671,3.671,0,0,0,3.667,3.667h17.115a3.671,3.671,0,0,0,3.667-3.667V217a3.671,3.671,0,0,0-3.667-3.667H131.667A3.671,3.671,0,0,0,128,217Zm7.335,20.782h-3.667a1.223,1.223,0,0,1-1.223-1.223v-3.667h4.89Zm7.335,0h-4.89v-4.89h4.89ZM150,236.56a1.223,1.223,0,0,1-1.223,1.223h-3.667V231.67a1.222,1.222,0,0,0-1.223-1.223H130.445v-7.335H150Zm-4.89-20.782h3.667A1.223,1.223,0,0,1,150,217v3.667h-4.89Zm-7.335,0h4.89v4.89h-4.89Zm-2.445,4.89h-4.89V217a1.223,1.223,0,0,1,1.223-1.223h3.667Z" transform="translate(-117.622 -188.508)"/></g><path class="d" d="M4.973,289.6a8.331,8.331,0,0,1-2.448-5.938A1.263,1.263,0,0,0,0,283.675a10.9,10.9,0,0,0,10.9,10.906h7.311L14.9,297.993a1.263,1.263,0,0,0,1.811,1.76l5.3-5.452a1.262,1.262,0,0,0,0-1.757l-5.3-5.5A1.263,1.263,0,1,0,14.9,288.8l3.139,3.257H10.891A8.315,8.315,0,0,1,4.973,289.6Zm0,0" transform="translate(0.191 -223.716)"/></g></g></g></svg>