<svg xmlns="http://www.w3.org/2000/svg" width="19" height="19" viewBox="0 0 19 19"><defs><style>.a{fill:#dddbda;}</style></defs><g transform="translate(-198.3 -333.599)"><path class="a" d="M66.8,23.3a9.5,9.5,0,1,0,9.5,9.5A9.56,9.56,0,0,0,66.8,23.3Zm0,17.6a8.1,8.1,0,1,1,8.1-8.1A8.066,8.066,0,0,1,66.8,40.9Z" transform="translate(141 310.3)"/><path class="a" d="M63.3,32.7h0a1.606,1.606,0,0,0,1.1-.5,1.626,1.626,0,1,0-2.3,0A1.656,1.656,0,0,0,63.3,32.7Z" transform="translate(141 310.3)"/><path class="a" d="M70.2,32.7a1.606,1.606,0,0,0,1.1-.5,1.626,1.626,0,1,0-2.3,0A2.078,2.078,0,0,0,70.2,32.7Z" transform="translate(141 310.3)"/><path class="a" d="M70.7,34.9a5.741,5.741,0,0,1-7.9,0,.707.707,0,0,0-1,1,6.966,6.966,0,0,0,4.9,2,6.8,6.8,0,0,0,4.9-2,.668.668,0,0,0,0-1A.561.561,0,0,0,70.7,34.9Z" transform="translate(141 310.3)"/></g></svg>