<svg xmlns="http://www.w3.org/2000/svg" width="19.002" height="19" viewBox="0 0 19.002 19"><defs><style>.a{fill:#dddbda;}</style></defs><g transform="translate(-198.298 -368.4)"><path class="a" d="M66.8,77.1a9.5,9.5,0,1,0-9.5-9.5A9.432,9.432,0,0,0,66.8,77.1Zm0-17.7a8.1,8.1,0,1,1-8.1,8.1A8.066,8.066,0,0,1,66.8,59.4Z" transform="translate(141 310.3)"/><path class="a" d="M63.3,67.4a1.606,1.606,0,0,0,1.1-.5,1.626,1.626,0,1,0-2.3,0A1.457,1.457,0,0,0,63.3,67.4Z" transform="translate(141 310.3)"/><path class="a" d="M70.2,67.4a1.606,1.606,0,0,0,1.1-.5,1.626,1.626,0,1,0-2.3,0A1.584,1.584,0,0,0,70.2,67.4Z" transform="translate(141 310.3)"/><path class="a" d="M61.7,70.3a.1.1,0,0,0,.1.1v.1c1.7,2.5,3.7,3.1,5,3.1h0a6.077,6.077,0,0,0,5-3.1v-.1a.1.1,0,0,1,.1-.1v-.5a.1.1,0,0,0-.1-.1l-.1-.1h-.1a.1.1,0,0,1-.1-.1H62.2a.1.1,0,0,0-.1.1H62l-.1.1-.1.1v.4Zm8,.5a4.22,4.22,0,0,1-3,1.4h0a4.189,4.189,0,0,1-2.9-1.4Z" transform="translate(141 310.3)"/></g></svg>