<svg xmlns="http://www.w3.org/2000/svg" width="16" height="15.925" viewBox="0 0 16 15.925"><defs><style>.a{fill:#CE4FDF;}</style></defs><path class="a" d="M8.1,15.251a2.828,2.828,0,0,0-1.613-.5H5.075v.2a.481.481,0,0,1-.481.481H.481A.481.481,0,0,1,0,14.947V4.855a.482.482,0,0,1,.481-.481H4.594a.482.482,0,0,1,.481.481v.2H6.718A3.277,3.277,0,0,0,8.429,2.169V2.018A2.006,2.006,0,0,1,10.326,0a1.958,1.958,0,0,1,2.018,1.956v2.39a2.07,2.07,0,0,1-.126.709H13.2A2.8,2.8,0,0,1,16,7.848v5.28a2.8,2.8,0,0,1-2.8,2.8H10.252A3.771,3.771,0,0,1,8.1,15.251Z" transform="translate(16 15.925) rotate(180)"/></svg>