<svg xmlns="http://www.w3.org/2000/svg" width="19" height="19" viewBox="0 0 19 19"><defs><style>.a{fill:#dddbda;}</style></defs><g transform="translate(-164.5 -368.4)"><path class="a" d="M33,77.1a9.5,9.5,0,1,0-9.5-9.5A9.56,9.56,0,0,0,33,77.1Zm0-17.7a8.1,8.1,0,1,1-8.1,8.1A8.066,8.066,0,0,1,33,59.4Z" transform="translate(141 310.3)"/><path class="a" d="M29.5,67.4a1.606,1.606,0,0,0,1.1-.5,1.626,1.626,0,1,0-2.3,0A1.457,1.457,0,0,0,29.5,67.4Z" transform="translate(141 310.3)"/><path class="a" d="M36.5,67.4a1.606,1.606,0,0,0,1.1-.5,1.626,1.626,0,1,0-2.3,0A1.346,1.346,0,0,0,36.5,67.4Z" transform="translate(141 310.3)"/><path class="a" d="M28.6,71.3a.684.684,0,0,0,.7.7h7.4a.7.7,0,1,0,0-1.4H29.3A.684.684,0,0,0,28.6,71.3Z" transform="translate(141 310.3)"/></g></svg>