<svg xmlns="http://www.w3.org/2000/svg" width="20" height="20" viewBox="0 0 20 20"><defs><style>.a{fill:#fff;stroke:#dddbda;stroke-miterlimit:10;}.b{fill:#706e6b;}.c{stroke:none;}.d{fill:none;}</style></defs><g transform="translate(367 176) rotate(180)"><g class="a" transform="translate(347 156)"><rect class="c" width="20" height="20" rx="4"/><rect class="d" x="0.5" y="0.5" width="19" height="19" rx="3.5"/></g><path class="b" d="M5,6a.908.908,0,0,1-.7-.3l-4-4A.967.967,0,0,1,.3.3.967.967,0,0,1,1.7.3L5,3.6,8.3.3A.967.967,0,0,1,9.7.3a.967.967,0,0,1,0,1.4l-4,4A.908.908,0,0,1,5,6Z" transform="translate(354 171) rotate(-90)"/></g></svg>