<svg xmlns="http://www.w3.org/2000/svg" width="86" height="108" viewBox="0 0 86 108"><defs><style>.a{fill:rgba(255,255,255,0);}.b{fill:#2cbafc;}.c{fill:#fff;}</style></defs><g transform="translate(817.417 23984.988)"><rect class="a" width="86" height="108" rx="6" transform="translate(-817.417 -23984.988)"/><g transform="translate(-798.113 -23963.752)"><g transform="translate(0 0)"><g transform="translate(0 0)"><g transform="translate(0 0)"><path class="b" d="M96.607,43.107a1.5,1.5,0,0,0-1.062-.44H70.01A6.015,6.015,0,0,0,64,48.676v54.086a6.015,6.015,0,0,0,6.01,6.01h36.058a6.016,6.016,0,0,0,6.01-6.01V59.193a1.5,1.5,0,0,0-.44-1.062Z" transform="translate(-64 -42.667)"/></g></g></g><path class="c" d="M128,216.992v19.514a3.879,3.879,0,0,0,4.059,3.659H151a3.879,3.879,0,0,0,4.059-3.659V216.992A3.879,3.879,0,0,0,151,213.333H132.059A3.879,3.879,0,0,0,128,216.992Zm8.119,20.734h-4.059a1.293,1.293,0,0,1-1.353-1.22v-3.659h5.412Zm8.119,0h-5.412v-4.879h5.412Zm8.119-1.22a1.293,1.293,0,0,1-1.353,1.22h-4.059v-6.1a1.291,1.291,0,0,0-1.353-1.22H130.706V223.09h21.65Zm-5.412-20.734H151a1.293,1.293,0,0,1,1.353,1.22v3.659h-5.412Zm-8.119,0h5.412v4.879h-5.412Zm-2.706,4.878h-5.412v-3.659a1.293,1.293,0,0,1,1.353-1.22h4.059Z" transform="translate(-117.646 -186.012)"/></g></g></svg>