<svg xmlns="http://www.w3.org/2000/svg" width="19" height="19" viewBox="0 0 19 19"><defs><style>.a{fill:#dddbda;}</style></defs><g transform="translate(-164.5 -333.599)"><path class="a" d="M33,42.3a9.5,9.5,0,1,0-9.5-9.5A9.56,9.56,0,0,0,33,42.3Zm0-17.6a8.1,8.1,0,1,1-8.1,8.1A8.066,8.066,0,0,1,33,24.7Z" transform="translate(141 310.3)"/><path class="a" d="M29.5,32.7a1.606,1.606,0,0,0,1.1-.5,1.626,1.626,0,1,0-2.3,0A1.845,1.845,0,0,0,29.5,32.7Z" transform="translate(141 310.3)"/><path class="a" d="M36.5,32.7a1.606,1.606,0,0,0,1.1-.5,1.626,1.626,0,1,0-2.3,0A1.656,1.656,0,0,0,36.5,32.7Z" transform="translate(141 310.3)"/><path class="a" d="M28.5,37.5a.764.764,0,0,0,.5-.2,5.553,5.553,0,0,1,7.9,0,.707.707,0,0,0,1-1,6.941,6.941,0,0,0-9.8,0,.668.668,0,0,0,0,1A.758.758,0,0,0,28.5,37.5Z" transform="translate(141 310.3)"/></g></svg>