<svg xmlns="http://www.w3.org/2000/svg" width="32.809" height="17.027" viewBox="0 0 32.809 17.027"><defs><style>.a{fill:#f05670;}.b{fill:#5bc6cf;}.c{fill:#383c77;}</style></defs><path class="a" d="M22.1,17.027H0A23.657,23.657,0,0,1,5.143,7.37a21.458,21.458,0,0,1,6.944-5.076A24.98,24.98,0,0,1,21.96,0H22.1V17.027Z" transform="translate(10.707 0)"/><path class="b" d="M22.1,0H0A23.658,23.658,0,0,0,5.143,9.658a21.458,21.458,0,0,0,6.944,5.076,24.98,24.98,0,0,0,9.873,2.294H22.1V0Z" transform="translate(22.102 17.027) rotate(180)"/><path class="c" d="M0,10.248A23.659,23.659,0,0,1,5.143.59Q5.414.29,5.7,0q.283.29.555.59A23.665,23.665,0,0,1,11.4,10.248Z" transform="translate(10.707 6.779)"/></svg>