<svg xmlns="http://www.w3.org/2000/svg" width="36" height="46.074" viewBox="0 0 36 46.074"><defs><style>.a,.c,.h{fill:none;}.a{stroke:#fff;stroke-width:5px;}.a,.b,.c,.d{stroke-linecap:round;}.b,.g{fill:#16325c;}.c{stroke:#ff4e4e;}.c,.d{stroke-width:4px;}.d{fill:#95e517;stroke:#95e517;}.e{fill:#2c0a3d;font-size:10px;font-family:AcuminPro-Medium, Acumin Pro;font-weight:500;}.f,.g{stroke:none;}</style></defs><g transform="translate(-10.657 -10.295)"><g transform="translate(39.369 10.295) rotate(90)"><path class="a" d="M0,24V0" transform="translate(3.529)"/><line class="a" y1="23.996" transform="translate(13.41 0)"/><line class="a" y1="23.996" transform="translate(23.29 0)"/><g class="b" transform="translate(0 11.998)"><path class="f" d="M 5.057740688323975 5.383444309234619 L 2.000000715255737 5.383444309234619 L 2.000000715255737 2.000004529953003 L 5.057740688323975 2.000004529953003 L 5.057740688323975 5.383444309234619 Z"/><path class="g" d="M 5.516571044921875 7.383444309234619 L 1.541170835494995 7.383444309234619 C 0.6900108456611633 7.383444309234619 8.209991619878565e-07 6.693444728851318 8.209991619878565e-07 5.842284679412842 L 8.209991619878565e-07 1.541164517402649 C 8.209991619878565e-07 0.6900045275688171 0.6900108456611633 4.53880329587264e-06 1.541170835494995 4.53880329587264e-06 L 5.516571044921875 4.53880329587264e-06 C 6.367730617523193 4.53880329587264e-06 7.057740688323975 0.6900045275688171 7.057740688323975 1.541164517402649 L 7.057740688323975 5.842284679412842 C 7.057740688323975 6.693444728851318 6.367730617523193 7.383444309234619 5.516571044921875 7.383444309234619 Z"/></g><g class="c" transform="translate(9.881 4.615)"><rect class="f" width="7.058" height="7.383" rx="2"/><rect class="h" x="2" y="2" width="3.058" height="3.383"/></g><g class="d" transform="translate(19.762 12.215)"><rect class="f" width="7.058" height="7.383" rx="2"/><rect class="h" x="2" y="2" width="3.058" height="3.383"/></g></g><text class="e" transform="translate(10.657 53.37)"><tspan x="0" y="0">Themes</tspan></text></g></svg>