<svg xmlns="http://www.w3.org/2000/svg" width="16" height="15.924" viewBox="0 0 16 15.924"><defs><style>.a{fill:#F4593D;}</style></defs><path class="a" d="M-9024.9-4.749a2.832,2.832,0,0,0-1.614-.5h-1.41v.2a.481.481,0,0,1-.482.483h-4.112a.481.481,0,0,1-.48-.483V-15.146a.48.48,0,0,1,.48-.481h4.112a.481.481,0,0,1,.482.481v.2h1.642a3.276,3.276,0,0,0,1.712-2.884v-.152a2.006,2.006,0,0,1,1.9-2.018,1.955,1.955,0,0,1,1.421.551,1.957,1.957,0,0,1,.6,1.406v2.389a2.043,2.043,0,0,1-.127.71h.988A2.8,2.8,0,0,1-9017-12.151v5.28a2.8,2.8,0,0,1-2.795,2.8h-2.956A3.75,3.75,0,0,1-9024.9-4.749Z" transform="translate(9033 20)"/></svg>