<svg xmlns="http://www.w3.org/2000/svg" xmlns:xlink="http://www.w3.org/1999/xlink" width="16" height="16" viewBox="0 0 16 16"><defs><style>.a{fill:rgba(0,0,0,0);}.b{fill:none;}.c{clip-path:url(#a);}.d{fill:#706e6b;}</style><clipPath id="a"><path d="M7.384,14.769a7.376,7.376,0,0,1-5.215-12.6A7.376,7.376,0,1,1,12.6,12.6,7.33,7.33,0,0,1,7.384,14.769Zm0-12.923A5.532,5.532,0,0,0,3.473,11.3,5.532,5.532,0,1,0,11.3,3.473,5.5,5.5,0,0,0,7.384,1.846Zm1.8,8.785a.456.456,0,0,1-.323-.139L6.585,8.215a.65.65,0,0,1-.123-.338V4.154a.473.473,0,0,1,.461-.461h.923a.473.473,0,0,1,.461.461V7.108a.459.459,0,0,0,.123.338L10.154,9.2a.446.446,0,0,1,0,.646l-.646.646A.457.457,0,0,1,9.184,10.631Z"/></clipPath></defs><rect class="a" width="16" height="16"/><rect class="b" width="16" height="16"/><rect class="a" width="16" height="16"/><path d="M7.384,14.769a7.376,7.376,0,0,1-5.215-12.6A7.376,7.376,0,1,1,12.6,12.6,7.33,7.33,0,0,1,7.384,14.769Zm0-12.923A5.532,5.532,0,0,0,3.473,11.3,5.532,5.532,0,1,0,11.3,3.473,5.5,5.5,0,0,0,7.384,1.846Zm1.8,8.785a.456.456,0,0,1-.323-.139L6.585,8.215a.65.65,0,0,1-.123-.338V4.154a.473.473,0,0,1,.461-.461h.923a.473.473,0,0,1,.461.461V7.108a.459.459,0,0,0,.123.338L10.154,9.2a.446.446,0,0,1,0,.646l-.646.646A.457.457,0,0,1,9.184,10.631Z" transform="translate(0.615 0.615)"/><g class="c" transform="translate(0.615 0.615)"><g transform="translate(-0.615 -0.615)"><rect class="a" width="16" height="16"/><rect class="a" width="16" height="16"/><rect class="d" width="16" height="16"/></g></g></svg>