<svg xmlns="http://www.w3.org/2000/svg" width="16" height="12.854" viewBox="0 0 16 12.854"><defs><style>.a{fill:#dddbda;}</style></defs><path class="a" d="M56.807,45.145a4.5,4.5,0,0,0-5.566.972,4.5,4.5,0,0,0-5.566-.972c-3.356,1.722-3.046,6.14-.265,8.348a51.253,51.253,0,0,0,5.831,3.93,51.483,51.483,0,0,0,5.83-3.93C59.853,51.284,60.164,46.867,56.807,45.145Zm-.471,7.42a49.863,49.863,0,0,1-5.095,3.485,49.668,49.668,0,0,1-5.095-3.485,4.458,4.458,0,0,1-1.7-3.808,3.112,3.112,0,0,1,1.773-2.56,3.687,3.687,0,0,1,1.683-.445,3.5,3.5,0,0,1,2.427,1.114l.907,1.089.009-.012.009.012.907-1.089a3.492,3.492,0,0,1,2.427-1.114,3.687,3.687,0,0,1,1.683.445,3.112,3.112,0,0,1,1.773,2.56A4.469,4.469,0,0,1,56.336,52.566Z" transform="translate(-43.241 -44.57)"/></svg>