<svg xmlns="http://www.w3.org/2000/svg" width="700" height="330" viewBox="0 0 700 330"><defs><style>.a{fill:#908e8d;}.b{fill:rgba(255,255,255,0.5);}</style></defs><g transform="translate(-645 -66)"><g transform="translate(625 -54)"><rect class="a" width="700" height="330" rx="6" transform="translate(20 120)"/></g><path class="b" d="M142.4,64H14.731A14.731,14.731,0,0,0,0,78.731v88.385a14.731,14.731,0,0,0,14.731,14.731H142.4a14.731,14.731,0,0,0,14.731-14.731V78.731A14.731,14.731,0,0,0,142.4,64Zm-1.841,103.116H16.572a1.841,1.841,0,0,1-1.841-1.841v-84.7a1.841,1.841,0,0,1,1.841-1.841H140.557a1.841,1.841,0,0,1,1.841,1.841v84.7A1.841,1.841,0,0,1,140.557,167.116ZM39.282,91.006a12.276,12.276,0,1,0,12.276,12.276A12.276,12.276,0,0,0,39.282,91.006Zm-9.821,61.378h98.205V127.834l-26.858-26.858a3.683,3.683,0,0,0-5.208,0L58.923,137.654,46.8,125.527a3.683,3.683,0,0,0-5.208,0L29.462,137.654Z" transform="translate(916.865 108)"/></g></svg>