<svg xmlns="http://www.w3.org/2000/svg" width="21.368" height="21.371" viewBox="0 0 21.368 21.371"><defs><style>.a{fill:none;}.b,.c{stroke:none;}.c{fill:#2699fb;}</style></defs><g transform="translate(0)"><g class="a" transform="translate(-2 -1.999)"><path class="b" d="M6.825,15.166,5.233,22.059a1.066,1.066,0,0,0,1.634,1.129l5.817-3.878L18.5,23.189a1.069,1.069,0,0,0,1.621-1.182l-1.954-6.838,4.846-4.361a1.068,1.068,0,0,0-.63-1.859l-6.091-.485L13.657,2.629a1.066,1.066,0,0,0-1.947,0L9.075,8.464l-6.091.484a1.068,1.068,0,0,0-.661,1.83Z"/><path class="c" d="M 6.939153671264648 21.33732604980469 L 11.85190677642822 18.06215858459473 L 12.68395709991455 17.50745964050293 L 13.51600646972656 18.06215858459473 L 18.35707664489746 21.2895393371582 L 16.72576713562012 15.58130931854248 L 16.46838569641113 14.68070983886719 L 17.16463661193848 14.05414962768555 L 21.26457214355469 10.36456203460693 L 16.17391586303711 9.959159851074219 L 15.29075622558594 9.888819694519043 L 14.92600631713867 9.081418991088867 L 12.68395709991455 4.118376731872559 L 10.44190692901611 9.081418991088867 L 10.07708644866943 9.888989448547363 L 9.193726539611816 9.959179878234863 L 4.05087947845459 10.36782169342041 L 7.871806621551514 14.09171962738037 L 8.476366996765137 14.6809196472168 L 8.286406517028809 15.50344944000244 L 6.939153671264648 21.33732604980469 M 6.270698547363281 23.37054634094238 C 6.058678150177002 23.37053680419922 5.846693515777588 23.30741882324219 5.664356708526611 23.18136978149414 C 5.303296566009521 22.93177032470703 5.132086753845215 22.48641014099121 5.232966423034668 22.05921936035156 L 6.82487678527832 15.16592979431152 L 2.322656631469727 10.77803897857666 C 2.022406578063965 10.48538970947266 1.921076655387878 10.04416942596436 2.0635666847229 9.649839401245117 C 2.206056594848633 9.255519866943359 2.56602668762207 8.980989456176758 2.983996629714966 8.947869300842285 L 9.074916839599609 8.463889122009277 L 11.7106466293335 2.629389524459839 C 11.88233661651611 2.245599508285522 12.26351642608643 1.998539447784424 12.68395709991455 1.998539447784424 C 13.10438632965088 1.998539447784424 13.48557662963867 2.245599508285522 13.65726661682129 2.629389524459839 L 16.29299736022949 8.463889122009277 L 22.3839168548584 8.948949813842773 C 22.80947685241699 8.982728958129883 23.17408752441406 9.266609191894531 23.31117630004883 9.670899391174316 C 23.44825744628906 10.07519912719727 23.33151626586914 10.52228927612305 23.01426696777344 10.80794906616211 L 18.16802597045898 15.16913986206055 L 20.12212753295898 22.00687026977539 C 20.24372673034668 22.43741989135742 20.08447647094727 22.89815902709961 19.72296714782715 23.16172981262207 C 19.53557014465332 23.2983512878418 19.31441116333008 23.36701393127441 19.09287643432617 23.36701393127441 C 18.88704299926758 23.36701393127441 18.68087959289551 23.30769729614258 18.50136756896973 23.18850898742676 L 12.68395709991455 19.31023979187012 L 6.866546630859375 23.18850898742676 C 6.686368465423584 23.3099308013916 6.478517055511475 23.37055397033691 6.270698547363281 23.37054634094238 Z"/></g></g></svg>