<svg xmlns="http://www.w3.org/2000/svg" width="84.676" height="84.212" viewBox="0 0 84.676 84.212"><defs><style>.a{fill:#f4593d;}</style></defs><path class="a" d="M415.886,320.945l7.081,9.258,10.234-5.578,2.7,11.338,11.618-.933-2.142,11.457,10.993,3.873-6.617,9.6,8.468,8.01-9.948,6.074,4.478,10.761-11.558,1.5-.287,11.652-11.17-3.328-5,10.528-8.851-7.584-8.851,7.584-5-10.528-11.17,3.328-.287-11.652-11.558-1.5L383.5,374.04l-9.948-6.074,8.468-8.01-6.617-9.6,10.993-3.873-2.142-11.457,11.618.933,2.7-11.338L408.8,330.2Z" transform="translate(-373.548 -320.945)"/></svg>