<svg xmlns="http://www.w3.org/2000/svg" width="82" height="104" viewBox="0 0 82 104"><defs><style>.a{fill:rgba(246,248,249,0);}.b{fill:#f05670;}.c{fill:#2cbafc;}</style></defs><g transform="translate(1493.596 23985)"><rect class="a" width="82" height="104" rx="6" transform="translate(-1493.596 -23985)"/><g transform="translate(-1482.634 -23971.361)"><g transform="translate(0 12.395)"><g transform="translate(0 0)"><path class="b" d="M95.6,43.094a1.455,1.455,0,0,0-1.029-.427H69.824A5.83,5.83,0,0,0,64,48.491v52.417a5.83,5.83,0,0,0,5.824,5.824h34.944a5.83,5.83,0,0,0,5.824-5.824V58.683a1.455,1.455,0,0,0-.427-1.029Zm12.08,57.814a2.916,2.916,0,0,1-2.912,2.912H69.824a2.916,2.916,0,0,1-2.912-2.912V48.491a2.916,2.916,0,0,1,2.912-2.912H93.968L107.68,59.286Z" transform="translate(-64 -42.667)"/><path class="b" d="M128,217.7V241a4.373,4.373,0,0,0,4.368,4.368h20.384A4.373,4.373,0,0,0,157.12,241V217.7a4.373,4.373,0,0,0-4.368-4.368H132.368A4.373,4.373,0,0,0,128,217.7Zm8.736,24.752h-4.368A1.457,1.457,0,0,1,130.912,241v-4.368h5.824Zm8.736,0h-5.824v-5.824h5.824ZM154.208,241a1.457,1.457,0,0,1-1.456,1.456h-4.368v-7.28a1.455,1.455,0,0,0-1.456-1.456H130.912v-8.736h23.3Zm-5.824-24.752h4.368a1.457,1.457,0,0,1,1.456,1.456v4.368h-5.824Zm-8.736,0h5.824v5.824h-5.824Zm-2.912,5.824h-5.824V217.7a1.457,1.457,0,0,1,1.456-1.456h4.368Z" transform="translate(-119.264 -190.037)"/></g></g><path class="c" d="M10.635,0A10.635,10.635,0,1,0,21.27,10.635,10.647,10.647,0,0,0,10.635,0Zm4.653,11.521H11.521v3.767a.886.886,0,1,1-1.772,0V11.521H5.982a.886.886,0,1,1,0-1.772H9.749V5.982a.886.886,0,1,1,1.772,0V9.749h3.767a.886.886,0,1,1,0,1.772Zm0,0" transform="translate(38.192 0)"/></g></g></svg>