<svg xmlns="http://www.w3.org/2000/svg" xmlns:xlink="http://www.w3.org/1999/xlink" width="18" height="18" viewBox="0 0 18 18"><defs><style>.a{fill:rgba(255,255,255,0.87);}.b{clip-path:url(#a);}</style><clipPath id="a"><path d="M7.5,15A7.5,7.5,0,0,1,2.195,2.195,7.5,7.5,0,0,1,12.805,12.805,7.452,7.452,0,0,1,7.5,15Zm0-6.442h0l2.692,2.692,1.058-1.058L8.558,7.5,11.25,4.807,10.193,3.75,7.5,6.442,4.807,3.75,3.75,4.807,6.442,7.5,3.75,10.193,4.807,11.25,7.5,8.558Z" transform="translate(0 0)"/></clipPath></defs><g transform="translate(1.5 1.5)"><path class="a" d="M7.5,15A7.5,7.5,0,0,1,2.195,2.195,7.5,7.5,0,0,1,12.805,12.805,7.452,7.452,0,0,1,7.5,15Zm0-6.442h0l2.692,2.692,1.058-1.058L8.558,7.5,11.25,4.807,10.193,3.75,7.5,6.442,4.807,3.75,3.75,4.807,6.442,7.5,3.75,10.193,4.807,11.25,7.5,8.558Z" transform="translate(0 0)"/></g></svg>