<svg xmlns="http://www.w3.org/2000/svg" width="85.211" height="108" viewBox="0 0 85.211 108"><defs><style>.a{fill:rgba(255,255,255,0);}.b{fill:#f05670;}.c{fill:#2cbafc;}.d{fill:#fff;}</style></defs><g transform="translate(1044.685 23985.064)"><rect class="a" width="85.211" height="108" rx="6" transform="translate(-1044.685 -23985.064)"/><g transform="translate(-1025.749 -23972.5)"><g transform="translate(0 0)"><path class="b" d="M40.68,0H6.492A6.461,6.461,0,0,0,0,6.415v70.16A6.461,6.461,0,0,0,6.492,82.99H40.68a6.461,6.461,0,0,0,6.493-6.415V26.607a1.233,1.233,0,0,0-2.466,0V70.16H2.466V11.531H44.707v9.338a1.233,1.233,0,0,0,2.466,0V6.415A6.461,6.461,0,0,0,40.68,0Zm4.027,72.6v3.979a4.008,4.008,0,0,1-4.027,3.979H6.492a4.007,4.007,0,0,1-4.027-3.979V72.6ZM2.466,9.094V6.415A4.007,4.007,0,0,1,6.492,2.436H40.68a4.008,4.008,0,0,1,4.027,3.979v2.68Zm0,0" transform="translate(0 0)"/><path class="b" d="M132.113,32.063h-2.63a1.233,1.233,0,0,0,0,2.466h2.63a1.233,1.233,0,0,0,0-2.466Zm0,0" transform="translate(-107.211 -26.803)"/><path class="b" d="M178.892,32.063h-1.315a1.233,1.233,0,1,0,0,2.466h1.315a1.233,1.233,0,0,0,0-2.466Zm0,0" transform="translate(-147.416 -26.803)"/><path class="b" d="M90.72,32.063H89.4a1.233,1.233,0,0,0,0,2.466H90.72a1.233,1.233,0,0,0,0-2.466Zm0,0" transform="translate(-73.708 -26.803)"/><path class="b" d="M121.467,467.373h5.26a1.233,1.233,0,1,0,0-2.466h-5.26a1.233,1.233,0,1,0,0,2.466Zm0,0" transform="translate(-100.511 -389.641)"/></g><g transform="translate(8.929 21.529)"><g transform="translate(0 0)"><g transform="translate(0)"><g transform="translate(0 0)"><path class="c" d="M83.552,42.931a.9.9,0,0,0-.637-.264H67.6a3.607,3.607,0,0,0-3.6,3.6V78.7a3.607,3.607,0,0,0,3.6,3.6H89.224a3.607,3.607,0,0,0,3.6-3.6V52.577a.9.9,0,0,0-.264-.637Z" transform="translate(-64 -42.667)"/></g></g></g><path class="d" d="M128,215.656v12.389a2.325,2.325,0,0,0,2.323,2.323h10.84a2.325,2.325,0,0,0,2.323-2.323V215.656a2.325,2.325,0,0,0-2.323-2.323h-10.84A2.325,2.325,0,0,0,128,215.656Zm4.646,13.163h-2.323a.775.775,0,0,1-.774-.774v-2.323h3.1Zm4.646,0h-3.1v-3.1h3.1Zm4.646-.774a.775.775,0,0,1-.774.774H138.84v-3.872a.774.774,0,0,0-.774-.774h-8.517v-4.646h12.389Zm-3.1-13.163h2.323a.775.775,0,0,1,.774.774v2.323h-3.1Zm-4.646,0h3.1v3.1h-3.1Zm-1.549,3.1h-3.1v-2.323a.775.775,0,0,1,.774-.774h2.323Z" transform="translate(-121.427 -197.609)"/></g></g></g></svg>