<svg xmlns="http://www.w3.org/2000/svg" width="5.915" height="8.767" viewBox="0 0 5.915 8.767"><defs><style>.a{fill:#8e8e8e;}</style></defs><path class="a" d="M2577.846,100h5.4l-.476.815h-1.517a3.462,3.462,0,0,1,.344.491,2.546,2.546,0,0,1,.189.464h1.46l-.476.812h-.984a4.507,4.507,0,0,1-.734,1.3,2.5,2.5,0,0,1-1.187.645,6.182,6.182,0,0,1-.861.2l3.162,4.04h-1.445l-3.111-4.039v-.718a8.2,8.2,0,0,0,1.488,0,2.476,2.476,0,0,0,1.07-.577,2.279,2.279,0,0,0,.387-.855h-3.224l.516-.95,2.56.138a4.263,4.263,0,0,0-.545-.615,2.033,2.033,0,0,0-1.08-.34,11.9,11.9,0,0,0-1.45,0Z" transform="translate(-2577.331 -100)"/></svg>