<svg xmlns="http://www.w3.org/2000/svg" xmlns:xlink="http://www.w3.org/1999/xlink" width="8" height="4.8" viewBox="0 0 8 4.8"><defs><style>.a{fill:none;}.b{clip-path:url(#a);}.c{fill:#706e6b;}</style><clipPath id="a"><rect class="a" width="8" height="4.8"/></clipPath></defs><g class="b" transform="translate(8 4.8) rotate(180)"><path class="c" d="M4,4.8a.726.726,0,0,1-.56-.24L.24,1.36A.773.773,0,0,1,.24.24a.773.773,0,0,1,1.12,0L4,2.88,6.64.24a.773.773,0,0,1,1.12,0,.773.773,0,0,1,0,1.12l-3.2,3.2A.726.726,0,0,1,4,4.8Z" transform="translate(0)"/></g></svg>