<svg xmlns="http://www.w3.org/2000/svg" xmlns:xlink="http://www.w3.org/1999/xlink" width="14" height="14" viewBox="0 0 14 14"><defs><style>.a{fill:#706e6b;}.b{fill:rgba(0,0,0,0);}.c{fill:none;}.d{clip-path:url(#a);}.e{fill:#3e3e3c;}</style><clipPath id="a"><path class="a" d="M1.306.1,6.879,5.62a.423.423,0,0,1,0,.592L1.306,11.732a.423.423,0,0,1-.592,0l-.592-.592a.423.423,0,0,1,0-.592L4.51,6.213a.423.423,0,0,0,0-.592L.148,1.286a.423.423,0,0,1,0-.592L.74.1a.446.446,0,0,1,.565,0Z" transform="translate(0)"/></clipPath></defs><rect class="b" width="14" height="14"/><rect class="c" width="14" height="14"/><rect class="b" width="14" height="14"/><path class="a" d="M1.306.1,6.879,5.62a.423.423,0,0,1,0,.592L1.306,11.732a.423.423,0,0,1-.592,0l-.592-.592a.423.423,0,0,1,0-.592L4.51,6.213a.423.423,0,0,0,0-.592L.148,1.286a.423.423,0,0,1,0-.592L.74.1a.446.446,0,0,1,.565,0Z" transform="translate(3.769 1.077)"/><g class="d" transform="translate(3.769 1.077)"><g transform="translate(-4.308 -1.615)"><rect class="b" width="15.077" height="15.077"/><rect class="e" width="15.077" height="15.077"/></g></g></svg>