<svg xmlns="http://www.w3.org/2000/svg" width="19.272" height="21.024" viewBox="0 0 19.272 21.024"><defs><style>.a{fill:#2699fb;fill-rule:evenodd;}</style></defs><g transform="translate(-8 -7.714)"><path class="a" d="M15.008,16.036V23.92a.422.422,0,0,1-.438.438h-.876a.422.422,0,0,1-.438-.438V16.036a.422.422,0,0,1,.438-.438h.876a.422.422,0,0,1,.438.438Zm3.5,0V23.92a.422.422,0,0,1-.438.438H17.2a.422.422,0,0,1-.438-.438V16.036A.422.422,0,0,1,17.2,15.6h.876a.422.422,0,0,1,.438.438Zm3.5,0V23.92a.422.422,0,0,1-.438.438H20.7a.422.422,0,0,1-.438-.438V16.036A.422.422,0,0,1,20.7,15.6h.876a.422.422,0,0,1,.438.438Zm1.752,9.91V12.97H11.5V25.946a1.554,1.554,0,0,0,.1.554,1.228,1.228,0,0,0,.2.37q.1.116.144.116H23.33q.041,0,.144-.116a1.228,1.228,0,0,0,.2-.37,1.554,1.554,0,0,0,.1-.554Zm-9.2-14.728H20.7l-.657-1.6a.386.386,0,0,0-.233-.151H15.473a.386.386,0,0,0-.233.151Zm12.7.438v.876a.422.422,0,0,1-.438.438H25.52V25.946a3.107,3.107,0,0,1-.643,1.964,1.908,1.908,0,0,1-1.547.828H11.942a1.927,1.927,0,0,1-1.547-.8A3,3,0,0,1,9.752,26V12.97H8.438A.422.422,0,0,1,8,12.532v-.876a.422.422,0,0,1,.438-.438h4.229l.958-2.286a1.9,1.9,0,0,1,.739-.862,1.932,1.932,0,0,1,1.081-.356h4.38a1.932,1.932,0,0,1,1.081.356,1.9,1.9,0,0,1,.739.862l.958,2.286h4.229a.422.422,0,0,1,.438.438Z" transform="translate(0 0)"/></g></svg>