<svg xmlns="http://www.w3.org/2000/svg" width="10.294" height="12" viewBox="0 0 10.294 12"><defs><style>.a{fill:#fff;}</style></defs><g transform="translate(-4 -2.023)"><g transform="translate(4 2.023)"><path class="a" d="M13.865,18a.427.427,0,0,0-.429.425v3.824H4.858V18.425a.429.429,0,0,0-.858,0v4.249a.427.427,0,0,0,.429.425h9.436a.427.427,0,0,0,.429-.425V18.425A.427.427,0,0,0,13.865,18Z" transform="translate(-4 -11.098)"/><path class="a" d="M8.761,6.118l2.263-2.549v6.942a.431.431,0,0,0,.862,0V3.568l2.263,2.549a.433.433,0,0,0,.715-.105.42.42,0,0,0-.069-.455l-3.017-3.4h0a.435.435,0,0,0-.629,0h0l-3.017,3.4a.421.421,0,0,0-.1.424.429.429,0,0,0,.332.288.434.434,0,0,0,.414-.151Z" transform="translate(-6.307 -2.023)"/></g></g></svg>