<svg xmlns="http://www.w3.org/2000/svg" xmlns:xlink="http://www.w3.org/1999/xlink" width="14.976" height="14.976" viewBox="0 0 14.976 14.976"><defs><style>.a{fill:none;}.b{clip-path:url(#a);}.c{fill:#a6adb4;}</style><clipPath id="a"><rect class="a" width="14.976" height="14.976"/></clipPath></defs><g class="b"><path class="c" d="M10.109,7.488l4.305-4.305a1.81,1.81,0,0,0,0-2.621,1.81,1.81,0,0,0-2.621,0L7.488,4.867,3.182.562a1.81,1.81,0,0,0-2.621,0,1.81,1.81,0,0,0,0,2.621L4.867,7.488.562,11.793a1.81,1.81,0,0,0,0,2.621,1.7,1.7,0,0,0,1.31.562,1.7,1.7,0,0,0,1.31-.562l4.305-4.305,4.305,4.305a1.81,1.81,0,0,0,2.621,0,1.81,1.81,0,0,0,0-2.621Z"/></g></svg>