<svg xmlns="http://www.w3.org/2000/svg" width="19" height="19" viewBox="0 0 19 19"><defs><style>.a{fill:#dddbda;}</style></defs><g transform="translate(-736 -478)"><path class="a" d="M28.5,37.5a.764.764,0,0,0,.5-.2,5.553,5.553,0,0,1,7.9,0,.707.707,0,0,0,1-1,6.941,6.941,0,0,0-9.8,0,.668.668,0,0,0,0,1A.758.758,0,0,0,28.5,37.5Z" transform="translate(712.5 454.725)"/><path class="a" d="M33,42.3a9.5,9.5,0,1,0-9.5-9.5A9.56,9.56,0,0,0,33,42.3Zm0-17.6a8.1,8.1,0,1,1-8.1,8.1A8.066,8.066,0,0,1,33,24.7Z" transform="translate(712.5 454.7)"/><g transform="translate(740.949 482)"><g transform="translate(6.187 1.965)"><path class="a" d="M59.779,33.357a1.6,1.6,0,1,0,1.6,1.6A1.6,1.6,0,0,0,59.779,33.357Z" transform="translate(-58.18 -33.357)"/></g><g transform="translate(0.388 1.965)"><path class="a" d="M30.784,33.357a1.6,1.6,0,1,0,1.6,1.6A1.6,1.6,0,0,0,30.784,33.357Z" transform="translate(-29.184 -33.357)"/></g><g transform="matrix(0.995, -0.105, 0.105, 0.995, -0.091, 0.178)"><g transform="translate(0 0)"><rect class="a" width="3.228" height="0.807" transform="translate(3.014 1.909) rotate(-159.017)"/></g></g><g transform="matrix(0.998, 0.07, -0.07, 0.998, 5.869, -0.113)"><g transform="translate(0)"><rect class="a" width="0.807" height="3.228" transform="translate(0.289 1.91) rotate(-110.996)"/></g></g></g></g></svg>