<svg xmlns="http://www.w3.org/2000/svg" xmlns:xlink="http://www.w3.org/1999/xlink" width="16" height="16" viewBox="0 0 16 16"><defs><style>.a{fill:rgba(0,0,0,0);}.b{fill:none;}.c{clip-path:url(#a);}.d{fill:#706e6b;}</style><clipPath id="a"><path d="M5.215,10.292.138,5.185a.483.483,0,0,1,0-.677l.677-.677a.483.483,0,0,1,.677,0L5.308,7.677a.335.335,0,0,0,.462,0L13.246.138a.483.483,0,0,1,.677,0L14.6.815a.483.483,0,0,1,0,.677l-8.708,8.8a.435.435,0,0,1-.677,0Z" transform="translate(0 0)"/></clipPath></defs><rect class="a" width="16" height="16"/><rect class="b" width="16" height="16"/><rect class="a" width="16" height="16"/><path d="M5.215,10.292.138,5.185a.483.483,0,0,1,0-.677l.677-.677a.483.483,0,0,1,.677,0L5.308,7.677a.335.335,0,0,0,.462,0L13.246.138a.483.483,0,0,1,.677,0L14.6.815a.483.483,0,0,1,0,.677l-8.708,8.8a.435.435,0,0,1-.677,0Z" transform="translate(0.615 3.077)"/><g class="c" transform="translate(0.615 3.077)"><g transform="translate(-0.615 -3.077)"><rect class="a" width="16" height="16"/><rect class="a" width="16" height="16"/><rect class="d" width="16" height="16"/></g></g></svg>