<svg xmlns="http://www.w3.org/2000/svg" width="16.511" height="16.39" viewBox="0 0 16.511 16.39"><defs><style>.a{fill:#0475d7;}.b{fill:#dddbda;stroke:rgba(0,0,0,0);}</style></defs><g transform="translate(-491.832 -177.398)"><path class="a" d="M8.819,13.774,4.911,15.828A.957.957,0,0,1,3.523,14.82l.746-4.351L1.109,7.388a.957.957,0,0,1,.53-1.632l4.368-.635L7.961,1.163a.957.957,0,0,1,1.716,0L11.63,5.121,16,5.756a.957.957,0,0,1,.53,1.632l-3.161,3.081.746,4.351a.957.957,0,0,1-1.388,1.008Z" transform="translate(491.014 177.348)"/><path class="b" d="M-8989.816,17.288a.952.952,0,0,1-.445-.112L-8994,15.21V1.993a.948.948,0,0,1,.691.518l1.952,3.959,4.37.635a.952.952,0,0,1,.772.652.951.951,0,0,1-.244.979l-3.158,3.082.745,4.352a.939.939,0,0,1-.208.773A.964.964,0,0,1-8989.816,17.288Z" transform="translate(9494 176)"/></g></svg>