<svg xmlns="http://www.w3.org/2000/svg" xmlns:xlink="http://www.w3.org/1999/xlink" width="16" height="16" viewBox="0 0 16 16"><defs><style>.a{fill:#F4593D;}.b{fill:rgba(0,0,0,0);}.c{fill:#F4593D;}.d{clip-path:url(#a);}</style><clipPath id="a"><path class="a" d="M12.307,14.769H1.23A1.232,1.232,0,0,1,0,13.538V6a.473.473,0,0,1,.462-.461H13.077A.473.473,0,0,1,13.538,6v7.538A1.232,1.232,0,0,1,12.307,14.769Zm-3.076-4a.292.292,0,0,0-.309.308v1.23a.292.292,0,0,0,.309.308h1.23a.291.291,0,0,0,.308-.308v-1.23a.291.291,0,0,0-.308-.308Zm-3.077,0a.291.291,0,0,0-.308.308v1.23a.291.291,0,0,0,.308.308h1.23a.291.291,0,0,0,.308-.308v-1.23a.291.291,0,0,0-.308-.308Zm-3.077,0a.291.291,0,0,0-.308.308v1.23a.291.291,0,0,0,.308.308h1.23a.291.291,0,0,0,.308-.308v-1.23a.291.291,0,0,0-.308-.308ZM9.231,7.692A.292.292,0,0,0,8.923,8V9.231a.291.291,0,0,0,.309.307h1.23a.291.291,0,0,0,.308-.307V8a.291.291,0,0,0-.308-.308Zm-3.077,0A.291.291,0,0,0,5.846,8V9.231a.291.291,0,0,0,.308.307h1.23a.291.291,0,0,0,.308-.307V8a.291.291,0,0,0-.308-.308Zm-3.077,0A.291.291,0,0,0,2.769,8V9.231a.291.291,0,0,0,.308.307h1.23a.291.291,0,0,0,.308-.307V8a.291.291,0,0,0-.308-.308ZM13.077,4H.462A.473.473,0,0,1,0,3.539v-.77A1.233,1.233,0,0,1,1.231,1.538H2.769V.923a.923.923,0,1,1,1.846,0v.615H8.924V.923a.923.923,0,1,1,1.846,0v.615h1.538a1.233,1.233,0,0,1,1.231,1.231v.77A.473.473,0,0,1,13.077,4Z"/></clipPath></defs><rect class="b" width="16" height="16"/><path class="c" d="M12.308,14.769H1.231A1.232,1.232,0,0,1,0,13.538V6a.473.473,0,0,1,.461-.461H13.077A.473.473,0,0,1,13.538,6v7.538A1.232,1.232,0,0,1,12.308,14.769Zm-3.077-4a.292.292,0,0,0-.308.308v1.231a.292.292,0,0,0,.308.308h1.231a.291.291,0,0,0,.307-.308V11.077a.291.291,0,0,0-.307-.308Zm-3.077,0a.291.291,0,0,0-.307.308v1.231a.291.291,0,0,0,.307.308H7.384a.292.292,0,0,0,.308-.308V11.077a.292.292,0,0,0-.308-.308Zm-3.077,0a.292.292,0,0,0-.308.308v1.231a.292.292,0,0,0,.308.308H4.308a.291.291,0,0,0,.307-.308V11.077a.291.291,0,0,0-.307-.308ZM9.231,7.692A.291.291,0,0,0,8.923,8V9.231a.291.291,0,0,0,.308.307h1.231a.291.291,0,0,0,.307-.307V8a.291.291,0,0,0-.307-.307Zm-3.077,0A.291.291,0,0,0,5.846,8V9.231a.291.291,0,0,0,.307.307H7.384a.291.291,0,0,0,.308-.307V8a.291.291,0,0,0-.308-.307Zm-3.077,0A.291.291,0,0,0,2.769,8V9.231a.291.291,0,0,0,.308.307H4.308a.291.291,0,0,0,.307-.307V8a.291.291,0,0,0-.307-.307ZM13.077,4H.461A.473.473,0,0,1,0,3.539V2.769A1.232,1.232,0,0,1,1.231,1.539H2.769V.923a.923.923,0,1,1,1.846,0v.615H8.923V.923a.923.923,0,1,1,1.846,0v.615h1.539a1.232,1.232,0,0,1,1.231,1.231v.769A.473.473,0,0,1,13.077,4Z" transform="translate(1.231 0.615)"/><g class="d" transform="translate(1.231 0.615)"><g transform="translate(-1.846 -1.231)"><rect class="b" width="17.231" height="17.231"/><rect class="c" width="17.231" height="17.231"/></g></g></svg>