<svg xmlns="http://www.w3.org/2000/svg" width="16" height="15.925" viewBox="0 0 16 15.925"><defs><style>.a{fill:#dddbda;}</style></defs><g transform="translate(-188.555 -385.042)"><path class="a" d="M8.036,72.372h4.112a.481.481,0,0,0,.481-.481v-.2h1.411a2.825,2.825,0,0,1,1.613.5,3.771,3.771,0,0,0,2.162.674h2.943a2.8,2.8,0,0,0,2.8-2.8V64.79A2.8,2.8,0,0,0,20.759,62h-.987a2.063,2.063,0,0,0,.126-.709V58.9a1.959,1.959,0,0,0-2.017-1.956,2.006,2.006,0,0,0-1.9,2.017v.151A3.277,3.277,0,0,1,14.272,62H12.63v-.2a.481.481,0,0,0-.481-.481H8.036a.481.481,0,0,0-.481.481V71.89A.481.481,0,0,0,8.036,72.372Zm6.355-9.412a.481.481,0,0,0,.217-.052,4.237,4.237,0,0,0,2.339-3.8v-.151a1.035,1.035,0,0,1,.963-1.055,1,1,0,0,1,.726.282.985.985,0,0,1,.3.711v2.389a1.1,1.1,0,0,1-.263.709H17.389a.481.481,0,1,0,0,.963h3.37a1.834,1.834,0,0,1,1.833,1.829v5.282A1.835,1.835,0,0,1,20.759,71.9H17.814a2.814,2.814,0,0,1-1.613-.5,3.785,3.785,0,0,0-2.161-.674H12.63V62.96Zm-5.873-.681h3.149v9.13H8.518Z" transform="translate(181 328.1)"/></g></svg>