<svg xmlns="http://www.w3.org/2000/svg" width="16" height="15.925" viewBox="0 0 16 15.925"><defs><style>.a{fill:#dddbda;}</style></defs><path class="a" d="M23.074,57.438H18.962a.481.481,0,0,0-.481.481v.2H17.069a2.825,2.825,0,0,1-1.613-.5,3.771,3.771,0,0,0-2.162-.674H10.351a2.8,2.8,0,0,0-2.8,2.8V65.02a2.8,2.8,0,0,0,2.8,2.792h.987a2.063,2.063,0,0,0-.126.709v2.39a1.959,1.959,0,0,0,2.017,1.956,2.006,2.006,0,0,0,1.9-2.017V70.7a3.277,3.277,0,0,1,1.711-2.885H18.48v.2a.481.481,0,0,0,.481.481h4.112a.481.481,0,0,0,.481-.481V57.92A.481.481,0,0,0,23.074,57.438ZM16.719,66.85a.481.481,0,0,0-.217.052,4.237,4.237,0,0,0-2.339,3.8v.151A1.035,1.035,0,0,1,13.2,71.9a1,1,0,0,1-.726-.282.985.985,0,0,1-.3-.711V68.522a1.1,1.1,0,0,1,.263-.709h1.283a.481.481,0,0,0,0-.963h-3.37a1.834,1.834,0,0,1-1.833-1.829V59.739a1.835,1.835,0,0,1,1.833-1.833H13.3a2.814,2.814,0,0,1,1.613.5,3.785,3.785,0,0,0,2.161.674H18.48V66.85Zm5.873.681H19.443V58.4h3.149Z" transform="translate(-7.555 -56.942)"/></svg>